<svg xmlns="http://www.w3.org/2000/svg" width="343" height="58" viewBox="0 0 343 58" fill="none">
<path fill-rule="evenodd" clip-rule="evenodd" d="M32.3934 37.0795L32.3539 37.0487L64.3664 21.6745L36.4462 0L32.0458 2.05825L56.0224 20.6699L32.3934 32.0185L20.4297 22.7281L35.3434 15.5652L31.3543 12.4696L16.1967 19.7491L7.68524 13.1575L27.1995 3.76892L23.7454 1.08827L23.2577 0.709743L0 11.7963L32.3539 37.0487L32.2897 37.0795H32.3934ZM32.2533 42.1097L64.3664 26.6864L64.4447 31.6619L35.8384 45.4V50.4355L64.4993 36.6465L64.5684 41.6256L32.2533 57.1453V42.1097ZM24.932 48.5864L0.327552 29.589L0.407626 35.3179L28.5389 57.1452L28.6263 40.1969L3.53595 20.8264V18.284L0.129188 15.4251L0.251119 23.6999L25.0193 43.2961L24.932 48.5864Z" fill="url(#paint0_linear_5_10)"/><defs>
<linearGradient id="paint0_linear_5_10" x1="16.6517" y1="3.09376" x2="47.6802" y2="49.682" gradientUnits="userSpaceOnUse"><stop stop-color="#6E28E0"/><stop offset="1" stop-color="#EB2F93"/>
</linearGradient>
</defs></svg>